<svg xmlns="http://www.w3.org/2000/svg" viewBox="0 0 32 32" fill="none">
  <rect width="32" height="32" rx="4" fill="#050D14"/>
  <rect x="1" y="1" width="30" height="30" rx="3" fill="none" stroke="#00E5A5" stroke-width="1.5"/>
  <!-- M -->
  <rect x="3" y="8" width="2" height="16" fill="#00E5A5"/>
  <rect x="5" y="10" width="2" height="2" fill="#00E5A5"/>
  <rect x="7" y="12" width="2" height="2" fill="#00E5A5"/>
  <rect x="9" y="10" width="2" height="2" fill="#00E5A5"/>
  <rect x="11" y="8" width="2" height="16" fill="#00E5A5"/>
  <!-- J -->
  <rect x="14" y="8" width="2" height="12" fill="#00C8FF"/>
  <rect x="12" y="20" width="2" height="2" fill="#00C8FF"/>
  <rect x="14" y="22" width="2" height="2" fill="#00C8FF"/>
  <rect x="16" y="8" width="2" height="2" fill="#00C8FF"/>
  <!-- P -->
  <rect x="19" y="8" width="2" height="16" fill="#FFD97D"/>
  <rect x="21" y="8" width="4" height="2" fill="#FFD97D"/>
  <rect x="25" y="10" width="2" height="2" fill="#FFD97D"/>
  <rect x="25" y="12" width="2" height="2" fill="#FFD97D"/>
  <rect x="21" y="14" width="4" height="2" fill="#FFD97D"/>
</svg>
